o Cube
v  1.0 -1.0 -1.0
v  1.0 -1.0  1.0
v -1.0 -1.0  1.0
v -1.0 -1.0 -1.0
v  1.0  1.0 -1.0
v  1.0  1.0  1.0
v -1.0  1.0  1.0
v -1.0  1.0 -1.0

# UV Corners
vt  0.0  0.0
vt  1.0  0.0
vt  1.0  1.0
vt  0.0  1.0

vn  0.0 -1.0  0.0
vn  0.0  1.0  0.0
vn  1.0  0.0  0.0
vn  0.0  0.0  1.0
vn -1.0  0.0  0.0
vn  0.0  0.0 -1.0

s off
# Bottom (Y-) - CCW
f 1/1/1 2/2/1 3/3/1
f 1/1/1 3/3/1 4/4/1

# Top (Y+) - CCW
f 5/4/2 8/3/2 7/2/2
f 5/4/2 7/2/2 6/1/2

# Right Side (X+) - CCW
f 1/2/3 5/3/3 6/4/3
f 1/2/3 6/4/3 2/1/3

# Front Side (Z+) - CCW
f 2/2/4 6/3/4 7/4/4
f 2/2/4 7/4/4 3/1/4

# Left Side (X-) - CCW
f 3/2/5 7/3/5 8/4/5
f 3/2/5 8/4/5 4/1/5

# Back Side (Z-) - CCW
f 4/2/6 8/3/6 5/4/6
f 4/2/6 5/4/6 1/1/6
